<?xml version="1.0" encoding="utf-8"?>
<svg xmlns="http://www.w3.org/2000/svg" width="512" height="512"><g transform="translate(-39.05 141.54)"><ellipse cx="295.05" cy="114.46" stroke="#000" stroke-width="43.98" rx="234.01" ry="234.01"/><path fill="#fcdb05" stroke="#fcdb05" stroke-width="10.1" d="M292.15-97.87c-108.9.25-218 93.24-208.73 229.88 2.64 38.92 18.04 79.05 44.08 112.72 39.74 51.4 104.26 87.73 186.03 81.76 102.46-7.49 196.34-96.45 194.3-215.88-1.97-115.8-98.7-210.83-215.68-208.48m3.57 441.81C170.89 345.96 64.98 240.1 65.85 114.11c.87-127.2 104.19-230.62 231.63-228.85 125.82 1.75 228.06 99.76 227.16 233.15-.82 123.46-102.09 225.84-228.91 225.53"/><path fill="#fcdb05" d="M329.88 125.54c14.59 20.43 31.64 38.19 47.8 56.64 18.38 20.98 18.63 20.64-3.87 36.43a323.13 323.13 0 0 0-21.09 16.03c-6.33 5.26-10.61 6.44-15.2-2.48-12.92-25.09-43.6-78.04-46.49-77.52-2.75.5-32.75 53.64-46.81 78.18-4.61 8.05-8.12 6.99-14.26 1.97-10.9-8.93-22.03-17.76-33.91-25.3-7.58-4.8-7.66-8.16-2.1-14.34 18.41-20.47 57.68-66.13 60-69.4-29.07-6.04-56.94-12-84.88-17.54-10.47-2.08-13.92-4.45-9.3-16.96 4.37-11.77 10.46-23.62 11.68-36.4 1.08-11.3 6.47-11.5 14.62-7.83 25.03 11.27 78.4 35 81.42 35.94 1.08-21.34-7.3-80.7-8.72-89.9-1.03-6.76 1.2-9.53 8.58-9.25 14.79.55 29.67 1.08 44.38-.14 11.37-.94 13.17 4.21 11.53 13.08-5.22 28.16-5.58 56.73-7.83 86.7 26.11-11.44 51.64-22 76.59-33.8 14.14-6.68 16.52-6.37 20.02 8.05 2.92 12.02 7.6 23.6 11.58 35.24 4.15 12.13-1.5 13.41-9.92 15.16-27.61 5.72-55.22 11.5-83.82 17.46"/></g></svg>