<svg xmlns="http://www.w3.org/2000/svg" width="896" height="1024" viewBox="0 0 896 1024" version="1.1"><path d="M 68.799 325.250 C 69.878 327.038, 76.842 339.075, 84.274 352 C 131.604 434.308, 130.303 432.207, 139.975 441.880 C 146.624 448.529, 154.707 454.145, 171 463.438 C 178.425 467.673, 185.032 471.670, 185.683 472.319 C 186.333 472.969, 190.870 480.475, 195.765 489 C 249.772 583.064, 249.740 583.014, 259.800 593.366 C 266.933 600.707, 273.856 605.587, 291.087 615.421 L 304.674 623.175 310.228 632.838 C 338.298 681.668, 366.112 729.303, 369.041 733.560 C 374.272 741.163, 383.587 750.466, 391.244 755.734 C 398.245 760.552, 422.536 775, 423.634 775 C 424.229 775, 423.591 773.848, 409.524 749.500 C 404.122 740.150, 388.920 713.825, 375.743 691 C 362.566 668.175, 340.862 630.600, 327.512 607.500 C 314.162 584.400, 295.717 552.450, 286.523 536.500 C 277.329 520.550, 266.293 501.425, 261.998 494 C 251.917 476.573, 232.027 442.117, 219.569 420.500 L 209.772 403.500 139.077 362.750 C 100.195 340.337, 68.035 322, 67.610 322 C 67.185 322, 67.720 323.462, 68.799 325.250 M 639.793 368.390 C 538.203 393.795, 454.819 414.848, 454.493 415.174 C 454.167 415.499, 455.997 419.219, 458.560 423.440 C 461.123 427.661, 463.021 431.313, 462.778 431.555 C 462.536 431.797, 456.749 433.652, 449.919 435.676 C 443.088 437.700, 437.335 439.479, 437.133 439.629 C 436.931 439.779, 438.876 443.806, 441.456 448.577 C 444.036 453.349, 445.776 457.574, 445.324 457.967 C 444.871 458.360, 439.550 460.393, 433.500 462.485 C 427.450 464.577, 422.118 466.628, 421.652 467.043 C 421.185 467.457, 423.919 473.130, 427.727 479.648 C 431.534 486.167, 436.397 494.538, 438.533 498.250 C 440.668 501.962, 442.730 505, 443.113 505 C 443.497 505, 461.066 496.937, 482.155 487.083 C 503.245 477.229, 520.633 469.300, 520.796 469.463 C 521.064 469.731, 511.694 486.070, 450.360 592.292 L 432.003 624.085 447.751 651.524 C 456.413 666.615, 463.725 678.960, 464 678.956 C 464.275 678.953, 470.769 668.049, 478.431 654.725 C 486.093 641.401, 505.241 608.225, 520.982 581 C 536.723 553.775, 557.229 518.263, 566.551 502.084 C 581.347 476.404, 584.508 471.599, 591.438 464.250 C 595.804 459.621, 602.104 453.909, 605.438 451.558 C 608.772 449.206, 658.975 419.916, 717 386.467 C 839.714 315.729, 829.079 321.980, 826.500 322.103 C 825.400 322.156, 741.382 342.985, 639.793 368.390 M 234.323 419.750 C 234.566 420.163, 243.076 434.900, 253.235 452.500 C 287.898 512.555, 331.963 588.870, 350.528 621 C 368.475 652.058, 416 734.381, 430.486 759.500 C 437.781 772.150, 444.492 783.962, 445.400 785.750 C 446.308 787.538, 447.411 789, 447.850 789 C 448.289 789, 453.631 780.338, 459.721 769.750 C 465.811 759.163, 502.837 694.925, 542.002 627 C 646.679 445.454, 649.270 440.934, 648.869 440.564 C 648.287 440.029, 619.571 456.411, 614.275 460.300 C 609.197 464.028, 599.135 474.197, 594.780 480 C 592.266 483.350, 564.789 530.912, 496.144 650.734 C 478.740 681.113, 464.275 705.972, 464 705.975 C 463.725 705.979, 461.895 703.173, 459.933 699.741 C 455.184 691.431, 371.812 546.927, 362.578 531 C 358.592 524.125, 351.769 512.281, 347.415 504.681 C 337.402 487.199, 329.028 476.568, 319.223 468.892 C 312.545 463.663, 236.908 419.028, 234.691 419.008 C 234.246 419.003, 234.081 419.337, 234.323 419.750" stroke="none" fill="#fbfafa" fill-rule="evenodd"/><path d="M 3.684 3.650 C 3.308 4.026, 3 33.058, 3 68.167 L 3 132 448 132 L 893 132 893 67.500 L 893 3 702.631 3 C 487.725 3, 501.675 2.515, 485.396 10.550 C 468.874 18.705, 456.951 32.471, 451.452 49.741 L 448.699 58.386 447.339 52.943 C 444.365 41.038, 433.915 24.729, 424.830 17.814 C 418.848 13.261, 408.856 8.231, 401 5.817 L 393.500 3.512 198.934 3.239 C 91.922 3.089, 4.060 3.273, 3.684 3.650 M 3.286 403.250 C 3.535 561.181, 3.920 615.615, 4.831 622 C 9.494 654.669, 11.656 666.173, 16.953 686.500 C 27.721 727.823, 44.332 767.702, 65.243 802.436 C 72.210 814.007, 81.199 827.911, 85.003 833 C 95.258 846.717, 98.437 850.782, 106.898 861 C 118.196 874.644, 134.640 891.773, 148.550 904.386 C 230.656 978.841, 337.612 1020.140, 447.893 1019.972 C 545.802 1019.823, 637.231 989.193, 716.502 929.985 C 760.522 897.106, 800.677 852.563, 829.176 805 C 864.465 746.106, 884.876 684.035, 891.467 615.573 C 892.787 601.856, 893 571.427, 893 396.323 L 893 193 447.977 193 L 2.955 193 3.286 403.250 M 68.799 325.250 C 69.878 327.038, 76.842 339.075, 84.274 352 C 131.604 434.308, 130.303 432.207, 139.975 441.880 C 146.624 448.529, 154.707 454.145, 171 463.438 C 178.425 467.673, 185.032 471.670, 185.683 472.319 C 186.333 472.969, 190.870 480.475, 195.765 489 C 249.772 583.064, 249.740 583.014, 259.800 593.366 C 266.933 600.707, 273.856 605.587, 291.087 615.421 L 304.674 623.175 310.228 632.838 C 338.298 681.668, 366.112 729.303, 369.041 733.560 C 374.272 741.163, 383.587 750.466, 391.244 755.734 C 398.245 760.552, 422.536 775, 423.634 775 C 424.229 775, 423.591 773.848, 409.524 749.500 C 404.122 740.150, 388.920 713.825, 375.743 691 C 362.566 668.175, 340.862 630.600, 327.512 607.500 C 314.162 584.400, 295.717 552.450, 286.523 536.500 C 277.329 520.550, 266.293 501.425, 261.998 494 C 251.917 476.573, 232.027 442.117, 219.569 420.500 L 209.772 403.500 139.077 362.750 C 100.195 340.337, 68.035 322, 67.610 322 C 67.185 322, 67.720 323.462, 68.799 325.250 M 639.793 368.390 C 538.203 393.795, 454.819 414.848, 454.493 415.174 C 454.167 415.499, 455.997 419.219, 458.560 423.440 C 461.123 427.661, 463.021 431.313, 462.778 431.555 C 462.536 431.797, 456.749 433.652, 449.919 435.676 C 443.088 437.700, 437.335 439.479, 437.133 439.629 C 436.931 439.779, 438.876 443.806, 441.456 448.577 C 444.036 453.349, 445.776 457.574, 445.324 457.967 C 444.871 458.360, 439.550 460.393, 433.500 462.485 C 427.450 464.577, 422.118 466.628, 421.652 467.043 C 421.185 467.457, 423.919 473.130, 427.727 479.648 C 431.534 486.167, 436.397 494.538, 438.533 498.250 C 440.668 501.962, 442.730 505, 443.113 505 C 443.497 505, 461.066 496.937, 482.155 487.083 C 503.245 477.229, 520.633 469.300, 520.796 469.463 C 521.064 469.731, 511.694 486.070, 450.360 592.292 L 432.003 624.085 447.751 651.524 C 456.413 666.615, 463.725 678.960, 464 678.956 C 464.275 678.953, 470.769 668.049, 478.431 654.725 C 486.093 641.401, 505.241 608.225, 520.982 581 C 536.723 553.775, 557.229 518.263, 566.551 502.084 C 581.347 476.404, 584.508 471.599, 591.438 464.250 C 595.804 459.621, 602.104 453.909, 605.438 451.558 C 608.772 449.206, 658.975 419.916, 717 386.467 C 839.714 315.729, 829.079 321.980, 826.500 322.103 C 825.400 322.156, 741.382 342.985, 639.793 368.390 M 234.323 419.750 C 234.566 420.163, 243.076 434.900, 253.235 452.500 C 287.898 512.555, 331.963 588.870, 350.528 621 C 368.475 652.058, 416 734.381, 430.486 759.500 C 437.781 772.150, 444.492 783.962, 445.400 785.750 C 446.308 787.538, 447.411 789, 447.850 789 C 448.289 789, 453.631 780.338, 459.721 769.750 C 465.811 759.163, 502.837 694.925, 542.002 627 C 646.679 445.454, 649.270 440.934, 648.869 440.564 C 648.287 440.029, 619.571 456.411, 614.275 460.300 C 609.197 464.028, 599.135 474.197, 594.780 480 C 592.266 483.350, 564.789 530.912, 496.144 650.734 C 478.740 681.113, 464.275 705.972, 464 705.975 C 463.725 705.979, 461.895 703.173, 459.933 699.741 C 455.184 691.431, 371.812 546.927, 362.578 531 C 358.592 524.125, 351.769 512.281, 347.415 504.681 C 337.402 487.199, 329.028 476.568, 319.223 468.892 C 312.545 463.663, 236.908 419.028, 234.691 419.008 C 234.246 419.003, 234.081 419.337, 234.323 419.750" stroke="none" fill="#d42434" fill-rule="evenodd"/></svg>