<?xml version="1.0" encoding="UTF-8"?>
<svg width="160" height="44" viewBox="0 0 160 44" xmlns="http://www.w3.org/2000/svg">
    <g id="Group">
        <path id="Rectangle-copy" fill="none" stroke="#ff9b7b" stroke-width="3" d="M 41.932583 24.516785 L 42.05825 24.149523 L 20.869976 16.899477 L 20.744308 17.266739 Z"/>
        <path id="Rectangle-copy-5" fill="none" stroke="#ff9b7b" stroke-width="3" d="M 34.378017 31.768036 L 34.743038 31.635998 L 27.207726 10.80468 L 26.842705 10.936718 Z"/>
        <path id="Rectangle-copy-6" fill="none" stroke="#ff9b7b" stroke-width="3" d="M 33.389225 31.93774 L 33.771038 31.86779 L 31.589214 19.959059 L 31.207403 20.029011 Z"/>
        <path id="Rectangle-copy-2" fill="none" stroke="#ff9b7b" stroke-width="3" d="M 39.874535 12.822519 L 40.196835 13.231499 L 21.365818 28.071466 L 21.043518 27.662487 Z"/>
        <path id="Rectangle-copy-3" fill="none" stroke="#ff9b7b" stroke-width="3" d="M 34.475956 10.169453 L 34.325714 10.120171 L 31.555702 18.56435 L 31.705944 18.613636 Z"/>
        <path id="Quarter-Circle-copy" fill="#ff9b7b" fill-rule="evenodd" stroke="#ff9b7b" stroke-width="3" d="M 41.594894 15.142179 C 44.470562 21.099504 41.972389 28.260059 36.01506 31.135727 L 30.808205 20.349037 L 41.594894 15.142179 Z"/>
        <path id="Path" fill="none" stroke="#ff9b7b" stroke-width="3" d="M 37.929554 10.208981 C 34.340508 7.699039 29.924812 7.253788 26.092518 8.623741 C 23.642363 9.499607 21.430677 11.117462 19.825962 13.412098 C 15.711309 19.295782 17.145393 27.401037 23.029078 31.515688 C 28.912764 35.630341 37.018021 34.196259 41.132671 28.312572 C 45.247322 22.428888 43.81324 14.323631 37.929554 10.208981 Z"/>
    </g>
    <path id="AYOJ-copy" fill="#ff9b7b" fill-rule="evenodd" stroke="none" d="M 48.863281 36.818359 C 48.629887 36.818359 48.426678 36.733318 48.255859 36.5625 C 48.085037 36.391682 48 36.19043 48 35.957031 C 48 35.838642 48.019432 35.722954 48.056641 35.611328 L 57.564453 9.546875 C 57.655781 9.259357 57.828075 8.998497 58.080078 8.761719 C 58.332081 8.524937 58.686459 8.40625 59.146484 8.40625 L 65.169922 8.40625 C 65.629951 8.40625 65.986282 8.524937 66.238281 8.761719 C 66.49028 8.998497 66.660622 9.259357 66.751953 9.546875 L 76.261719 35.611328 C 76.298927 35.722954 76.316406 35.838642 76.316406 35.957031 C 76.316406 36.19043 76.231361 36.391682 76.060547 36.5625 C 75.889732 36.733318 75.688477 36.818359 75.455078 36.818359 L 70.457031 36.818359 C 70.034203 36.818359 69.725754 36.719101 69.53125 36.519531 C 69.336754 36.319962 69.20385 36.132923 69.132813 35.957031 L 67.580078 31.847656 L 56.736328 31.847656 L 55.183594 35.957031 C 55.122707 36.132923 54.997757 36.319962 54.806641 36.519531 C 54.615528 36.719101 54.299107 36.818359 53.859375 36.818359 L 48.863281 36.818359 Z M 82.5625 36.818359 C 82.274986 36.818359 82.034073 36.721581 81.837891 36.525391 C 81.641708 36.329201 81.542969 36.086346 81.542969 35.798828 L 81.542969 27.072266 L 72.121094 9.695313 C 72.09404 9.631046 72.068604 9.561008 72.044922 9.488281 C 72.02124 9.415558 72.009766 9.341995 72.009766 9.267578 C 72.009766 9.034184 72.094803 8.832932 72.265625 8.662109 C 72.436447 8.491291 72.637695 8.40625 72.871094 8.40625 L 77.945313 8.40625 C 78.354607 8.40625 78.674278 8.508244 78.904297 8.712891 C 79.134315 8.917538 79.286919 9.101833 79.361328 9.267578 L 85.201172 19.740234 L 91.041016 9.267578 C 91.125572 9.101833 91.280914 8.917538 91.505859 8.712891 C 91.730797 8.508244 92.047737 8.40625 92.457031 8.40625 L 97.53125 8.40625 C 97.764648 8.40625 97.965904 8.491291 98.136719 8.662109 C 98.307533 8.832932 98.392578 9.034184 98.392578 9.267578 C 98.392578 9.341995 98.383835 9.415558 98.365234 9.488281 C 98.346634 9.561008 98.318459 9.631046 98.28125 9.695313 L 88.859375 27.072266 L 88.859375 35.798828 C 88.859375 36.086346 88.760635 36.329201 88.564453 36.525391 C 88.368271 36.721581 88.12188 36.818359 87.824219 36.818359 L 82.5625 36.818359 Z M 58.396484 25.986328 L 65.919922 25.986328 L 62.146484 15.271484 L 58.396484 25.986328 Z"/>
    <path id="Shape" fill="#ffffff" fill-rule="evenodd" stroke="none" d="M 136.046066 37.225227 C 134.500244 37.225227 133.031372 37.029041 131.63945 36.636665 C 130.247528 36.244286 129.005295 35.654884 127.912727 34.868435 C 126.82016 34.081989 125.955086 33.108669 125.317467 31.94845 C 124.679855 30.788231 124.342453 29.440296 124.305244 27.904612 C 124.305244 27.661068 124.388115 27.451353 124.553856 27.275457 C 124.719597 27.099564 124.929321 27.01162 125.183014 27.01162 L 130.66275 27.01162 C 131.051743 27.01162 131.346008 27.105484 131.545593 27.293217 C 131.745163 27.480947 131.90921 27.764235 132.03775 28.143082 C 132.196732 28.890629 132.464798 29.502865 132.841949 29.979805 C 133.219101 30.456749 133.696884 30.806839 134.275299 31.030087 C 134.853729 31.253338 135.511627 31.36496 136.249023 31.36496 C 137.598663 31.36496 138.639633 30.925232 139.371964 30.045765 C 140.104294 29.1663 140.470444 27.875868 140.470444 26.174438 L 140.470444 14.469126 L 127.319092 14.469126 C 127.031578 14.469126 126.789719 14.371033 126.593536 14.174845 C 126.397354 13.978655 126.299255 13.736805 126.299255 13.449287 L 126.299255 9.425743 C 126.299255 9.138226 126.397354 8.896378 126.593536 8.700188 C 126.789719 8.503998 127.031578 8.405907 127.319092 8.405907 L 146.964935 8.405907 C 147.262604 8.405907 147.509537 8.503998 147.705719 8.700188 C 147.901901 8.896378 148 9.143299 148 9.440968 L 148 26.392612 C 148 28.740112 147.490097 30.721422 146.470245 32.336597 C 145.450394 33.951775 144.043274 35.170326 142.248825 35.992287 C 140.454376 36.814251 138.38681 37.225227 136.046066 37.225227 Z"/>
    <path id="path1" fill="#ffffff" fill-rule="evenodd" stroke="none" d="M 110.134048 37.225227 C 107.634331 37.225227 105.468681 36.821861 103.637016 36.015121 C 101.805359 35.208378 100.372864 33.981369 99.339493 32.334061 C 98.306114 30.686752 97.740395 28.633564 97.642296 26.174438 C 97.615234 25.024364 97.601707 23.862471 97.601707 22.688721 C 97.601707 21.514971 97.615234 20.336164 97.642296 19.152266 C 97.740395 16.7202 98.312027 14.676315 99.357246 13.02055 C 100.402466 11.364784 101.847641 10.114098 103.692833 9.268456 C 105.538017 8.422813 107.685066 8 110.134048 8 C 112.583031 8 114.73008 8.422813 116.575272 9.268456 C 118.420456 10.114098 119.872406 11.364784 120.931145 13.02055 C 121.989891 14.676315 122.554771 16.7202 122.625809 19.152266 C 122.679924 20.336164 122.706985 21.514971 122.706985 22.688721 C 122.706985 23.862471 122.679924 25.024364 122.625809 26.174438 C 122.537857 28.633564 121.97467 30.686752 120.936218 32.334061 C 119.897774 33.981369 118.462746 35.208378 116.631081 36.015121 C 114.799423 36.821861 112.633774 37.225227 110.134048 37.225227 Z M 110.134048 31.36496 C 111.56488 31.36496 112.730995 30.936226 113.632454 30.078747 C 114.533905 29.221264 115.013374 27.843737 115.070885 25.946115 C 115.125 24.762218 115.152061 23.642605 115.152061 22.587244 C 115.152061 21.531883 115.125 20.429184 115.070885 19.279112 C 115.033669 18.014032 114.800285 16.980673 114.370697 16.179005 C 113.941101 15.377335 113.365234 14.790468 112.643059 14.418388 C 111.920876 14.046307 111.084549 13.860268 110.134048 13.860268 C 109.210617 13.860268 108.383583 14.046307 107.652954 14.418388 C 106.922318 14.790468 106.342216 15.377335 105.912628 16.179005 C 105.48304 16.980673 105.244576 18.014032 105.19722 19.279112 C 105.170158 20.429184 105.156631 21.531883 105.156631 22.587244 C 105.156631 23.642605 105.170158 24.762218 105.19722 25.946115 C 105.271629 27.843737 105.757874 29.221264 106.655945 30.078747 C 107.554008 30.936226 108.713371 31.36496 110.134048 31.36496 Z"/>
</svg>
