<svg xmlns="http://www.w3.org/2000/svg" width="160" height="44">
  <g stroke="#fd0" transform="matrix(.0875 0 0 .0875 0 1)">
    <path d="M240 36a204 204 0 1 1 0 408 204 204 0 1 1 0-408" fill="none" stroke-width="24"/>
    <path d="M215.8 126h48.4l-10.1 94.6 86.8-38.9 15 46.1-93.1 19.6 63.8 70.6-39.2 28.5L240 264l-47.4 82.5-39.2-28.5 63.8-70.6-93.1-19.6 15-46.1 86.8 38.9z" fill="#fd0" stroke-linejoin="round" stroke-width="12"/>
  </g>
  <g transform="matrix(.53656 0 0 .52273 46.09 -512.12)">
    <g fill="#fd0">
      <path d="M1.8 1045v-46.4h16.4q24.7 0 24.7 22.6 0 10.8-6.8 17.3-6.7 6.5-18 6.5H1.7zm10.4-37.9v29.4h5.2q6.8 0 10.6-4.1 3.9-4.1 3.9-11.1 0-6.6-3.8-10.4-3.8-3.8-10.7-3.8h-5.1z"/>
      <path d="M101.5 1045H91.2v-27.8q0-4.5.4-9.9h-.3q-.8 4.3-1.5 6.1l-10.9 31.5h-8.5l-11.1-31.2q-.5-1.3-1.5-6.5h-.3q.4 6.9.4 12v25.7h-9.4v-46.4h15.3l9.5 27.5q1.1 3.3 1.6 6.6h.2q.9-3.8 1.8-6.7l9.5-27.4h14.9v46.4z"/>
      <path d="M113.6 1018.2q-2.5 0-4.2-1.5-1.7-1.6-1.7-3.8 0-2.3 1.7-3.8t4.3-1.5q2.6 0 4.3 1.5 1.7 1.5 1.7 3.8 0 2.4-1.7 3.8-1.7 1.5-4.4 1.5zm0 23.7q-2.5 0-4.2-1.6-1.7-1.6-1.7-3.8 0-2.3 1.7-3.8t4.3-1.5q2.6 0 4.3 1.5 1.7 1.5 1.7 3.8 0 2.4-1.7 3.9t-4.4 1.5z"/>
      <path d="M129.6 1018.2q-2.5 0-4.2-1.5-1.7-1.6-1.7-3.8 0-2.3 1.7-3.8t4.3-1.5q2.6 0 4.3 1.5 1.7 1.5 1.7 3.8 0 2.4-1.7 3.8-1.7 1.5-4.4 1.5zm0 23.7q-2.5 0-4.2-1.6-1.7-1.6-1.7-3.8 0-2.3 1.7-3.8t4.3-1.5q2.6 0 4.3 1.5 1.7 1.5 1.7 3.8 0 2.4-1.7 3.9t-4.4 1.5z"/>
    </g>
    <path fill="#aaa" d="M161.7 1045.8q-10 0-16.2-6.5-6.3-6.5-6.3-16.9 0-11 6.4-17.8 6.4-6.8 16.9-6.8 9.9 0 16 6.5t6.1 17.1q0 10.9-6.4 17.6-6.3 6.7-16.6 6.7zm.5-39q-5.5 0-8.7 4.1-3.2 4.1-3.2 10.9 0 6.9 3.2 10.9t8.5 4q5.4 0 8.6-3.9 3.2-3.9 3.2-10.8 0-7.2-3.1-11.2-3.1-4-8.4-4z"/>
    <path fill="#aaa" d="M209.6 1026.6q0 9.3-4.3 14.3-4.3 4.9-12.5 4.9-3.7 0-6.8-1.3v-9.8q2.7 2 6 2 7.1 0 7.1-10.6v-27.6h10.5v28z"/>
  </g>
</svg>
