<svg xmlns="http://www.w3.org/2000/svg" width="600" height="152" viewBox="0 0 600 152" version="1.1"><path d="M 10.168 51.777 C 13.204 58.793, 19.847 68.532, 23.039 70.645 C 25.612 72.347, 28.575 76.050, 32.002 81.844 C 35.112 87.102, 38.531 91.482, 40.709 93 C 42.804 94.461, 46.416 99.003, 49.397 103.925 C 53.894 111.349, 59.227 117.194, 60.354 115.933 C 60.567 115.695, 53.865 103.623, 45.461 89.106 L 30.180 62.713 20.008 56.862 C 14.414 53.643, 9.986 51.355, 10.168 51.777 M 91.690 57.731 C 73.001 62.446, 66.015 64.596, 66.370 65.523 C 66.641 66.227, 65.991 67.031, 64.927 67.309 C 63.731 67.622, 63.206 68.374, 63.553 69.278 C 63.864 70.088, 63.422 71.008, 62.564 71.337 C 61.285 71.828, 61.215 72.378, 62.167 74.466 C 63.557 77.519, 63.615 77.523, 69.559 74.975 C 72.157 73.861, 74.400 73.074, 74.542 73.225 C 74.685 73.376, 72.101 78.165, 68.801 83.866 L 62.801 94.233 64.552 98.116 C 65.516 100.252, 66.599 102, 66.961 102 C 67.322 102, 71.182 95.812, 75.537 88.250 C 79.893 80.688, 84.817 73.131, 86.478 71.457 C 88.140 69.783, 96.138 64.674, 104.250 60.104 C 112.362 55.533, 119 51.615, 119 51.397 C 119 50.823, 119.795 50.639, 91.690 57.731 M 34 65.423 C 34 65.721, 35.706 68.785, 37.791 72.232 C 39.877 75.680, 46.709 87.388, 52.975 98.250 C 59.241 109.112, 64.622 117.989, 64.934 117.976 C 65.413 117.955, 72.261 106.260, 90.885 73.654 L 94.269 67.728 91.012 69.614 C 87.345 71.738, 86.455 73.033, 75.461 92.250 C 71.135 99.813, 67.348 105.982, 67.047 105.961 C 66.746 105.939, 62.240 98.487, 57.034 89.402 C 47.840 73.357, 47.395 72.779, 41.534 69.281 C 33.913 64.732, 34 64.777, 34 65.423" stroke="none" fill="#fbf4f5" fill-rule="evenodd"/><path d="M 0 12.007 L 0 24.015 64.750 23.757 L 129.500 23.500 129.782 11.707 L 130.064 -0.087 101.096 0.207 L 72.128 0.500 69.076 3.426 C 67.397 5.035, 65.739 7.248, 65.391 8.343 C 64.832 10.103, 64.607 9.970, 63.436 7.186 C 62.709 5.456, 60.625 3.132, 58.807 2.023 C 55.701 0.130, 53.809 0.007, 27.750 0.004 L 0 0 0 12.007 M 565.877 33.501 C 556.526 38.372, 552.616 45.595, 553.184 56.950 C 553.490 63.066, 554.080 65.305, 556.287 68.740 C 565.701 83.387, 590.808 83.528, 598.224 68.976 C 599.934 65.620, 599.950 65.719, 600.251 81.547 C 600.418 90.321, 600.559 82.425, 600.564 64 C 600.568 45.575, 600.429 35.548, 600.254 41.719 L 599.935 52.937 588.218 53.219 L 576.500 53.500 576.500 57.500 L 576.500 61.500 582.250 61.800 C 588.414 62.121, 589.115 62.885, 586.056 65.944 C 581.802 70.198, 571.996 69.354, 568.099 64.398 C 565.513 61.112, 564.559 54.867, 565.982 50.553 C 568.806 41.998, 579.178 39.025, 585.198 45.045 C 588.218 48.064, 588.287 48.079, 593.621 46.885 C 599.966 45.465, 600.370 44.118, 596.029 38.852 C 589.498 30.928, 575.564 28.455, 565.877 33.501 M 1 67.032 C 1 99.903, 1.129 102.447, 3.088 108.282 C 9.227 126.565, 25.412 142.704, 44 149.077 C 52.969 152.151, 70.919 152.901, 80.026 150.582 C 99.193 145.700, 114.780 133.100, 123.427 115.500 C 129.174 103.802, 130 97.149, 130 62.542 L 130 32 65.500 32 L 1 32 1 67.032 M 166 32.300 C 166 32.464, 170.711 42.927, 176.468 55.550 L 186.937 78.500 193.183 78.500 L 199.430 78.500 209.667 56 C 215.298 43.625, 219.926 33.163, 219.952 32.750 C 219.979 32.337, 216.963 32.012, 213.250 32.026 L 206.500 32.053 200 47.460 C 196.425 55.934, 193.235 62.559, 192.912 62.183 C 192.589 61.808, 189.467 54.862, 185.974 46.750 L 179.623 32 172.812 32 C 169.065 32, 166 32.135, 166 32.300 M 248.629 35.250 C 247.861 37.038, 243.355 47.172, 238.616 57.772 C 233.877 68.371, 230 77.484, 230 78.022 C 230 78.560, 232.718 79, 236.041 79 L 242.082 79 243.813 74.925 L 245.543 70.850 255.776 70.675 L 266.009 70.500 267.755 74.746 L 269.500 78.993 275.750 78.996 C 279.188 78.998, 282.001 78.662, 282.002 78.250 C 282.004 77.838, 277.422 67.263, 271.820 54.750 L 261.636 32 255.831 32 C 250.236 32, 249.976 32.117, 248.629 35.250 M 301.232 55.250 L 301.500 78.500 307.722 78.797 L 313.945 79.094 314.222 65.023 L 314.500 50.952 324.064 64.726 L 333.629 78.500 340.064 78.500 L 346.500 78.500 346.768 55.250 L 347.037 32 340.518 32 L 334 32 334 46.178 L 334 60.355 324.250 46.183 L 314.500 32.010 307.732 32.005 L 300.963 32 301.232 55.250 M 372.232 55.250 L 372.500 78.500 388.987 78.500 L 405.473 78.500 407.678 74 C 408.890 71.525, 409.909 69.162, 409.941 68.750 C 409.973 68.338, 404.375 68, 397.500 68 L 385 68 385 50 L 385 32 378.482 32 L 371.963 32 372.232 55.250 M 433.120 54.750 C 427.546 67.263, 422.989 77.838, 422.993 78.250 C 422.997 78.662, 425.722 79, 429.049 79 L 435.098 79 436.924 74.920 L 438.751 70.840 449 70.840 L 459.249 70.840 461.076 74.920 L 462.902 79 468.951 79 C 472.278 79, 475 78.565, 475 78.033 C 475 77.264, 461.917 47.520, 455.961 34.750 C 454.782 32.221, 454.221 32, 448.966 32 L 443.253 32 433.120 54.750 M 492 55.500 L 492 79 498 79 L 504 79 504 64.360 L 504 49.721 506.626 53.610 C 508.070 55.750, 512.598 62.337, 516.687 68.250 L 524.123 79 530.562 79 L 537 79 537 55.500 L 537 32 530.500 32 L 524 32 524 46.077 L 524 60.153 517.919 51.327 C 514.574 46.472, 510.235 40.138, 508.277 37.250 L 504.717 32 498.358 32 L 492 32 492 55.500 M 254.750 47.710 C 254.473 48.695, 253.297 51.862, 252.138 54.750 L 250.029 60 255.921 60 L 261.813 60 259.069 53.496 C 255.864 45.899, 255.426 45.312, 254.750 47.710 M 448.215 48 C 447.653 49.375, 446.265 52.638, 445.132 55.250 L 443.071 60 448.965 60 L 454.860 60 452.561 54.250 C 451.296 51.087, 450.032 47.825, 449.750 47 C 449.375 45.901, 448.965 46.168, 448.215 48 M 10.168 51.777 C 13.204 58.793, 19.847 68.532, 23.039 70.645 C 25.612 72.347, 28.575 76.050, 32.002 81.844 C 35.112 87.102, 38.531 91.482, 40.709 93 C 42.804 94.461, 46.416 99.003, 49.397 103.925 C 53.894 111.349, 59.227 117.194, 60.354 115.933 C 60.567 115.695, 53.865 103.623, 45.461 89.106 L 30.180 62.713 20.008 56.862 C 14.414 53.643, 9.986 51.355, 10.168 51.777 M 91.690 57.731 C 73.001 62.446, 66.015 64.596, 66.370 65.523 C 66.641 66.227, 65.991 67.031, 64.927 67.309 C 63.731 67.622, 63.206 68.374, 63.553 69.278 C 63.864 70.088, 63.422 71.008, 62.564 71.337 C 61.285 71.828, 61.215 72.378, 62.167 74.466 C 63.557 77.519, 63.615 77.523, 69.559 74.975 C 72.157 73.861, 74.400 73.074, 74.542 73.225 C 74.685 73.376, 72.101 78.165, 68.801 83.866 L 62.801 94.233 64.552 98.116 C 65.516 100.252, 66.599 102, 66.961 102 C 67.322 102, 71.182 95.812, 75.537 88.250 C 79.893 80.688, 84.817 73.131, 86.478 71.457 C 88.140 69.783, 96.138 64.674, 104.250 60.104 C 112.362 55.533, 119 51.615, 119 51.397 C 119 50.823, 119.795 50.639, 91.690 57.731 M 34 65.423 C 34 65.721, 35.706 68.785, 37.791 72.232 C 39.877 75.680, 46.709 87.388, 52.975 98.250 C 59.241 109.112, 64.622 117.989, 64.934 117.976 C 65.413 117.955, 72.261 106.260, 90.885 73.654 L 94.269 67.728 91.012 69.614 C 87.345 71.738, 86.455 73.033, 75.461 92.250 C 71.135 99.813, 67.348 105.982, 67.047 105.961 C 66.746 105.939, 62.240 98.487, 57.034 89.402 C 47.840 73.357, 47.395 72.779, 41.534 69.281 C 33.913 64.732, 34 64.777, 34 65.423 M 440 100.706 C 433.886 102.941, 431.986 110.270, 436.582 113.886 C 439.252 115.986, 439.639 116.142, 446.750 117.979 C 449.827 118.774, 451 119.589, 451 120.932 C 451 124.708, 444.974 125.065, 441.409 121.500 C 438.794 118.885, 436.495 118.401, 434.046 119.950 C 432.774 120.755, 432.774 121.212, 434.046 123.599 C 436.135 127.520, 443.073 130.366, 448.542 129.546 C 454.811 128.606, 458 125.752, 458 121.082 C 458 116.273, 455.949 114.397, 447.982 111.917 C 440.124 109.472, 439.631 109.150, 441.074 107.411 C 442.691 105.462, 446.340 105.645, 449.012 107.809 C 451.463 109.793, 457 109.621, 457 107.561 C 457 106.150, 453.465 102.747, 450.316 101.125 C 448.060 99.963, 442.635 99.743, 440 100.706 M 524 101.204 C 524 101.620, 526.475 105.454, 529.500 109.723 C 534.631 116.965, 535 117.873, 535 123.243 L 535 129 538.500 129 L 542 129 542 123.381 C 542 118.189, 542.417 117.167, 547.500 109.913 C 550.525 105.596, 553 101.700, 553 101.256 C 553 100.811, 551.271 100.612, 549.157 100.814 C 545.714 101.142, 544.968 101.749, 542.001 106.645 L 538.690 112.109 535.111 106.637 C 531.966 101.829, 531.076 101.122, 527.766 100.806 C 525.695 100.609, 524 100.788, 524 101.204 M 220 112.077 C 220 122.877, 220.070 123.224, 222.802 125.956 C 228.022 131.176, 237.920 130.907, 243.089 125.405 C 245.240 123.115, 245.509 121.802, 245.847 111.934 L 246.221 101 242.611 101 L 239 101 239 110.066 C 239 121.224, 238.199 123, 233.165 123 C 227.567 123, 227 121.878, 227 110.800 L 227 101 223.500 101 L 220 101 220 112.077 M 260 114.940 L 260 129 263.571 129 L 267.142 129 266.821 120.045 C 266.644 115.120, 266.765 111.408, 267.088 111.795 C 267.412 112.183, 270.256 116.213, 273.407 120.750 C 278.698 128.367, 279.401 129, 282.569 129 L 286 129 286 115 L 286 101 282.500 101 L 279 101 279 109.695 L 279 118.390 273.250 109.945 C 267.925 102.124, 267.223 101.477, 263.750 101.190 L 260 100.879 260 114.940 M 301 115 L 301 129 304.500 129 L 308 129 308 115 L 308 101 304.500 101 L 301 101 301 115 M 319.270 102.250 C 319.536 102.938, 322.366 109.237, 325.559 116.250 C 331.327 128.918, 331.386 129, 334.739 129 C 338.421 129, 337.602 130.336, 348.105 107.193 L 350.967 100.887 346.910 101.193 L 342.853 101.500 338.727 110.758 L 334.601 120.016 330.597 110.508 L 326.594 101 322.690 101 C 319.975 101, 318.933 101.381, 319.270 102.250 M 361 115 L 361 129 372 129 L 383 129 383 126 L 383 123 375.500 123 L 368 123 367.998 120.250 L 367.996 117.500 374.498 117.835 L 381 118.171 381 115.085 L 381 112 374.500 112 C 368.233 112, 368 111.910, 368 109.500 C 368 107.056, 368.167 107, 375.500 107 L 383 107 383 104 L 383 101 372 101 L 361 101 361 115 M 397 115 L 397 129 400.500 129 L 404 129 404 124 C 404 119.659, 404.265 119, 406.009 119 C 407.343 119, 409.052 120.680, 411.095 124 C 413.965 128.664, 414.443 129, 418.201 129 L 422.230 129 420.615 126.500 C 415.295 118.265, 415.474 119.314, 418.899 116.432 C 423.037 112.949, 423.235 107.508, 419.364 103.636 C 416.872 101.144, 416.188 101, 406.864 101 L 397 101 397 115 M 470 115 L 470 129 473.500 129 L 477 129 477 115 L 477 101 473.500 101 L 470 101 470 115 M 489.184 103.750 C 489.473 106.268, 489.900 106.526, 494.250 106.805 L 499 107.110 499 118.055 L 499 129 502.500 129 L 506 129 506 118 L 506 107 511 107 C 515.889 107, 516 106.933, 516 104 L 516 101 502.434 101 L 488.867 101 489.184 103.750 M 404 110 L 404 113.105 409.250 112.802 C 414.103 112.523, 414.500 112.311, 414.500 110 C 414.500 107.689, 414.103 107.477, 409.250 107.198 L 404 106.895 404 110" stroke="none" fill="#d31f30" fill-rule="evenodd"/></svg>