<?xml version="1.0" encoding="UTF-8"?>
<svg width="160" height="44" viewBox="0 0 160 44" xmlns="http://www.w3.org/2000/svg">
    <g id="Group">
        <path id="Path" fill="none" stroke="#ffdd00" stroke-width="2.1" visibility="hidden" d="M 21 4.150002 C 30.858282 4.150002 38.849998 12.141716 38.849998 22 C 38.849998 31.858282 30.858282 39.849998 21 39.849998 C 11.141717 39.849998 3.15 31.858282 3.15 22 C 3.15 12.141716 11.141717 4.150002 21 4.150002"/>
        <path id="path1" fill="#ffdd00" stroke="#ffdd00" stroke-width="1.05" stroke-linejoin="round" visibility="hidden" d="M 18.8825 12.025 L 23.1175 12.025 L 22.233751 20.3025 L 29.828749 16.89875 L 31.141249 20.932501 L 22.994999 22.647499 L 28.577501 28.825001 L 25.147499 31.31875 L 21 24.1 L 16.852501 31.31875 L 13.4225 28.825001 L 19.004999 22.647499 L 10.858749 20.932501 L 12.17125 16.89875 L 19.766249 20.3025 Z"/>
    </g>
    <g id="AYOJ-1">
        <path id="path2" fill="#ffffff" stroke="none" d="M 49.023453 36.504551 L 43 36.504551 L 53.520412 7.624989 L 60.080204 7.624989 L 70.600616 36.504551 L 64.494652 36.504551 L 56.779678 14.184774 L 49.023453 36.504551 Z M 84.132751 36.504551 L 78.356842 36.504551 L 78.356842 26.43796 L 68.579048 7.624989 L 75.138832 7.624989 L 81.863647 21.775974 L 80.749718 21.775974 L 87.433273 7.624989 L 93.910553 7.624989 L 84.132751 26.43796 L 84.132751 36.504551 Z M 126.214409 27.634401 L 131.949066 27.634401 C 131.947601 27.985041 131.972137 28.335308 132.022507 28.682316 C 132.089615 29.130637 132.202657 29.537701 132.361633 29.903509 C 132.49173 30.208958 132.665131 30.494078 132.876526 30.750092 C 133.071121 30.983591 133.301086 31.185165 133.558075 31.347488 C 133.850342 31.528793 134.171158 31.659355 134.506973 31.73365 C 134.771561 31.794984 135.057607 31.830327 135.365112 31.83968 C 135.422852 31.841537 135.480621 31.842503 135.538391 31.842567 C 135.806686 31.84392 136.074646 31.82336 136.339584 31.781094 C 136.629206 31.733512 136.892151 31.657875 137.128418 31.554184 C 137.24939 31.501274 137.366074 31.439064 137.477448 31.368114 C 137.956635 31.061161 138.32959 30.614006 138.545578 30.087513 C 138.554153 30.067516 138.562546 30.047438 138.57074 30.027279 C 138.789124 29.487919 138.905467 28.852706 138.919769 28.121639 C 138.920837 28.069252 138.921387 28.016853 138.921417 27.964453 L 138.921417 7.624989 L 144.697342 7.624989 L 144.697342 27.964453 C 144.697342 30.263816 144.18837 32.139887 143.170425 33.592667 C 142.897903 33.981445 142.587051 34.341904 142.242569 34.66864 C 141.08992 35.751156 139.651413 36.481003 138.097122 36.771896 C 137.308868 36.927887 136.506927 37.004181 135.703415 36.999634 C 134.859283 37.004059 134.016861 36.923618 133.188828 36.759518 C 132.328156 36.588737 131.494705 36.301712 130.71138 35.906334 C 129.281143 35.177467 128.17409 34.118549 127.390221 32.72958 C 126.947281 31.931318 126.631981 31.068661 126.455765 30.172915 C 126.307515 29.451475 126.227613 28.67599 126.216057 27.846458 C 126.215019 27.775778 126.21447 27.70509 126.214409 27.634401 Z M 104.641373 36.471962 C 103.497009 36.163807 102.399353 35.702957 101.377983 35.101833 C 99.232643 33.836633 97.548002 32.08323 96.324059 29.841625 C 95.465958 28.249275 94.904671 26.514109 94.66761 24.720865 C 94.546059 23.840754 94.486092 22.953232 94.488144 22.06477 C 94.488144 19.121803 95.100115 16.529518 96.324059 14.287914 C 97.548002 12.046309 99.232643 10.292906 101.377983 9.027706 C 103.523323 7.762506 105.998716 7.129906 108.804161 7.129906 C 110.191231 7.120789 111.573692 7.290371 112.917435 7.634476 C 114.100914 7.941975 115.236481 8.410778 116.292213 9.027706 C 118.451307 10.292906 120.129074 12.046309 121.325516 14.287914 C 122.160995 15.875078 122.707886 17.598038 122.940704 19.376495 C 123.062439 20.267378 123.122406 21.165611 123.120171 22.06477 C 123.120171 25.007735 122.521952 27.60002 121.325516 29.841625 C 120.129074 32.08323 118.451307 33.836633 116.292213 35.101833 C 114.133125 36.367034 111.637108 36.999634 108.804161 36.999634 C 107.3993 37.009209 105.999413 36.831757 104.641373 36.471962 Z M 108.804161 31.801308 C 109.572899 31.806427 110.339417 31.718182 111.086884 31.538506 C 111.870399 31.348513 112.618111 31.033241 113.301117 30.60487 C 114.49202 29.84967 115.45575 28.785559 116.089645 27.525896 C 116.13813 27.432215 116.185036 27.337723 116.230331 27.242464 C 116.895386 25.846067 117.238777 24.186042 117.260506 22.262388 C 117.261299 22.196518 117.261711 22.130644 117.261749 22.06477 C 117.265518 21.250204 117.201767 20.436729 117.071136 19.632698 C 116.918493 18.720104 116.673981 17.882872 116.337601 17.121 C 116.302963 17.042519 116.267204 16.964535 116.230331 16.887075 C 115.817444 16.001064 115.249474 15.196001 114.553253 14.509874 C 114.171577 14.138474 113.751884 13.808254 113.301117 13.524668 C 112.383583 12.953554 111.356216 12.581764 110.285683 12.433434 C 109.795097 12.361967 109.299911 12.326803 108.804161 12.32823 C 108.025627 12.322853 107.249557 12.416428 106.494614 12.60671 C 105.742104 12.798605 105.024704 13.108427 104.36908 13.524668 C 103.241936 14.248568 102.316742 15.246439 101.679977 16.425003 C 101.595787 16.576832 101.515717 16.730913 101.439865 16.887075 C 100.761612 18.283472 100.411344 19.943497 100.389061 21.867151 C 100.388268 21.933022 100.387856 21.998894 100.387833 22.06477 C 100.383957 22.879488 100.448959 23.693075 100.582146 24.496841 C 100.754046 25.503775 101.039953 26.418983 101.439865 27.242464 C 101.840637 28.084421 102.377266 28.854664 103.028244 29.522299 C 103.433098 29.932383 103.882889 30.295532 104.36908 30.60487 C 105.294533 31.187536 106.334984 31.563297 107.419182 31.706419 C 107.878029 31.770641 108.340843 31.802349 108.804161 31.801308 Z M 65.48481 30.027279 L 47.620731 30.027279 L 49.147221 25.530319 L 63.999573 25.530319 L 65.48481 30.027279 Z"/>
    </g>
    <g id="g1">
        <path id="Rectangle" fill="none" stroke="#ff9b7b" stroke-width="3" d="M 26 34 L 27 34 L 27 9 L 26 9 Z"/>
        <path id="Rectangle-copy" fill="none" stroke="#ff9b7b" stroke-width="3" d="M 34.985283 30.692389 L 35.692387 29.985281 L 18.014719 12.307611 L 17.307611 13.014719 Z"/>
        <path id="Rectangle-copy-2" fill="none" stroke="#ff9b7b" stroke-width="3" d="M 39 21 L 39 22 L 14 22 L 14 21 Z"/>
        <path id="Rectangle-copy-3" fill="none" stroke="#ff9b7b" stroke-width="3" d="M 35.692387 13.014719 L 34.985283 12.307611 L 17.307611 29.985281 L 18.014719 30.692389 Z"/>
        <path id="Quarter-Circle-copy" fill="#ff9b7b" fill-rule="evenodd" stroke="#ff9b7b" stroke-width="3" d="M 38 23 C 38 28.52285 33.52285 33 28 33 L 28 23 L 38 23 Z"/>
        <path id="Ellipse" fill="none" stroke="#ff9b7b" stroke-width="3" d="M 39.5 22 C 39.5 14.820299 33.679703 9 26.5 9 C 19.320297 9 13.5 14.820299 13.5 22 C 13.5 29.179703 19.320297 35 26.5 35 C 33.679703 35 39.5 29.179703 39.5 22 Z"/>
    </g>
</svg>
