<?xml version="1.0" standalone="no"?>
<!DOCTYPE svg PUBLIC "-//W3C//DTD SVG 20010904//EN"
 "http://www.w3.org/TR/2001/REC-SVG-20010904/DTD/svg10.dtd">
<svg version="1.0" xmlns="http://www.w3.org/2000/svg"
 width="700.000000pt" height="700.000000pt" viewBox="0 0 700.000000 700.000000"
 preserveAspectRatio="xMidYMid meet">
<metadata>
Created by potrace 1.14, written by Peter Selinger 2001-2017
</metadata>
<g transform="translate(0.000000,700.000000) scale(0.100000,-0.100000)"
fill="#000000" stroke="none">
<path d="M3280 6994 c-19 -2 -84 -9 -145 -14 -639 -62 -1264 -315 -1795 -726
-149 -115 -481 -446 -595 -594 -410 -532 -653 -1132 -727 -1795 -17 -155 -17
-575 0 -730 75 -673 332 -1300 748 -1820 114 -143 339 -372 484 -494 537 -451
1163 -717 1885 -803 142 -17 586 -17 730 0 682 79 1268 318 1802 734 138 107
389 351 512 498 451 538 717 1162 803 1885 16 139 16 595 0 730 -77 629 -275
1158 -620 1649 -234 333 -577 668 -917 896 -460 308 -968 495 -1535 566 -117
15 -552 27 -630 18z m605 -369 c827 -108 1546 -508 2062 -1145 372 -459 596
-986 679 -1595 25 -182 25 -588 0 -770 -68 -503 -231 -944 -497 -1345 -325
-490 -740 -854 -1264 -1106 -314 -151 -617 -241 -980 -290 -182 -25 -589 -25
-770 0 -722 98 -1341 401 -1840 901 -255 254 -441 515 -600 840 -162 331 -249
621 -302 1005 -24 174 -24 586 0 760 84 614 302 1129 676 1595 391 489 928
850 1546 1041 188 58 471 110 700 128 105 8 475 -3 590 -19z"/>
<path d="M3280 6294 c-110 -10 -334 -46 -430 -69 -1025 -247 -1828 -1051
-2075 -2075 -54 -226 -69 -363 -69 -650 0 -287 15 -423 69 -650 190 -789 719
-1464 1438 -1835 294 -152 577 -242 912 -292 184 -27 592 -24 780 5 304 47
555 127 830 262 564 277 996 710 1275 1275 135 274 215 525 262 830 18 118 22
182 22 405 0 293 -15 427 -73 665 -95 387 -291 782 -545 1097 -280 348 -681
649 -1096 823 -195 82 -444 151 -670 186 -131 20 -511 34 -630 23z m623 -1064
c14 -11 29 -29 32 -40 3 -10 -24 -296 -60 -636 -36 -339 -64 -619 -61 -621 2
-3 256 108 563 245 307 138 569 253 583 256 16 4 36 0 55 -12 28 -17 39 -45
144 -368 63 -192 114 -363 115 -381 0 -18 -8 -41 -18 -52 -21 -23 -21 -23
-725 -171 -288 -60 -525 -111 -527 -112 -1 -2 186 -212 416 -467 231 -255 422
-472 426 -483 3 -10 3 -32 -1 -48 -7 -30 -71 -80 -554 -427 -82 -60 -118 -67
-154 -30 -12 12 -160 262 -327 554 -168 293 -307 533 -310 533 -3 0 -142 -240
-310 -533 -167 -292 -315 -542 -327 -555 -45 -45 -59 -38 -392 203 -281 205
-311 229 -317 259 -3 19 -1 42 4 53 6 10 197 226 426 478 228 253 413 461 412
462 -1 2 -279 61 -616 133 -665 140 -654 137 -654 202 1 18 52 190 115 382
105 323 116 351 144 368 45 27 -38 60 814 -321 210 -95 385 -170 388 -168 2 3
-26 282 -62 621 -36 340 -63 626 -60 636 3 11 18 29 32 40 25 19 39 20 403 20
364 0 378 -1 403 -20z"/>
</g>
</svg>
