<?xml version="1.0" standalone="no"?>
<!DOCTYPE svg PUBLIC "-//W3C//DTD SVG 20010904//EN"
 "http://www.w3.org/TR/2001/REC-SVG-20010904/DTD/svg10.dtd">
<svg version="1.0" xmlns="http://www.w3.org/2000/svg"
 width="960.000000pt" height="960.000000pt" viewBox="0 0 960.000000 960.000000"
 preserveAspectRatio="xMidYMid meet">
<metadata>
Created by potrace 1.11, written by Peter Selinger 2001-2013
</metadata>
<g transform="translate(0.000000,960.000000) scale(0.100000,-0.100000)"
fill="#000000" stroke="none">
<path d="M4430 9579 c-1066 -77 -2049 -478 -2810 -1146 -900 -791 -1457 -1877
-1597 -3115 -25 -218 -25 -828 0 -1048 126 -1122 585 -2089 1362 -2865 773
-774 1763 -1251 2865 -1381 183 -21 681 -30 891 -15 951 68 1836 397 2584 961
181 137 295 236 474 413 538 531 923 1151 1161 1867 129 386 200 739 231 1150
15 201 6 734 -16 929 -126 1130 -590 2116 -1355 2881 -763 763 -1738 1226
-2855 1355 -166 20 -744 28 -935 14z"/>
</g>
</svg>
