<svg xmlns="http://www.w3.org/2000/svg" height="65" width="212">
 <switch>
  <g transform="translate(0 -987.36)">
   <path d="m1.8 1045v-46.4h16.4q24.7 0 24.7 22.6 0 10.8-6.8 17.3-6.7 6.5-18 6.5h-16.4zm10.4-37.9v29.4h5.2q6.8 0 10.6-4.1 3.9-4.1 3.9-11.1 0-6.6-3.8-10.4t-10.7-3.8h-5.1z" style="fill:#ffde05"/>
   <path d="m101.5 1045h-10.3v-27.8q0-4.5 0.4-9.9h-0.3q-0.8 4.3-1.5 6.1l-10.9 31.5h-8.5l-11.1-31.2q-0.5-1.3-1.5-6.5h-0.3q0.4 6.9 0.4 12v25.7h-9.4v-46.4h15.3l9.5 27.5q1.1 3.3 1.6 6.6h0.2q0.9-3.8 1.8-6.7l9.5-27.4h14.9v46.4z" style="fill:#ffde05"/>
   <g transform="translate(0,-4)">
     <path d="m113.6 1022.2q-2.5 0-4.2-1.5-1.7-1.6-1.7-3.8 0-2.3 1.7-3.8t4.3-1.5 4.3 1.5 1.7 3.8q0 2.4-1.7 3.8-1.7 1.5-4.4 1.5zm0 23.7q-2.5 0-4.2-1.6t-1.7-3.8q0-2.3 1.7-3.8t4.3-1.5 4.3 1.5 1.7 3.8q0 2.4-1.7 3.9t-4.4 1.5z" style="fill:#ffde05"/>
     <path d="m129.6 1022.2q-2.5 0-4.2-1.5-1.7-1.6-1.7-3.8 0-2.3 1.7-3.8t4.3-1.5 4.3 1.5 1.7 3.8q0 2.4-1.7 3.8-1.7 1.5-4.4 1.5zm0 23.7q-2.5 0-4.2-1.6t-1.7-3.8q0-2.3 1.7-3.8t4.3-1.5 4.3 1.5 1.7 3.8q0 2.4-1.7 3.9t-4.4 1.5z" style="fill:#ffde05"/>
   </g>
   <path d="m161.7 1045.8q-10 0-16.2-6.5-6.3-6.5-6.3-16.9 0-11 6.4-17.8t16.9-6.8q9.9 0 16 6.5t6.1 17.1q0 10.9-6.4 17.6-6.3 6.7-16.6 6.7zm0.5-39q-5.5 0-8.7 4.1t-3.2 10.9q0 6.9 3.2 10.9t8.5 4q5.4 0 8.6-3.9t3.2-10.8q0-7.2-3.1-11.2t-8.4-4z" style="fill:#aaa"/>
   <path d="m209.6 1026.6q0 9.3-4.3 14.3-4.3 4.9-12.5 4.9-3.7 0-6.8-1.3v-9.8q2.7 2 6 2 7.1 0 7.1-10.6v-27.6h10.5v28z" style="fill:#aaa"/>
  </g>
  <foreignobject>
   <span style="color: #FFDE05">DM::</span><span style="color: #AAA">OJ</span>
  </foreignobject>
 </switch>
</svg>